<svg width="200" height="60" viewBox="0 0 747 174" xmlns="http://www.w3.org/2000/svg">
    <g clip-path="url(#clip0_16_176)">
        <path
            d="M10.078 128V38.4H48.99C54.9633 38.4 59.998 39.296 64.094 41.088C68.2753 42.7947 71.4327 45.312 73.566 48.64C75.6993 51.968 76.766 55.936 76.766 60.544C76.766 65.664 75.486 69.9307 72.926 73.344C70.366 76.7573 66.6967 79.104 61.918 80.384L61.79 77.824C65.7153 78.7627 69.1713 80.2987 72.158 82.432C75.1447 84.5653 77.4487 87.2107 79.07 90.368C80.6913 93.5253 81.502 97.1093 81.502 101.12C81.502 105.557 80.7767 109.483 79.326 112.896C77.8753 116.224 75.742 118.997 72.926 121.216C70.11 123.435 66.782 125.141 62.942 126.336C59.1873 127.445 54.9633 128 50.27 128H10.078ZM28.51 111.36H49.502C52.2327 111.36 54.5367 110.976 56.414 110.208C58.3767 109.355 59.87 108.075 60.894 106.368C61.918 104.661 62.43 102.656 62.43 100.352C62.43 98.1333 61.8753 96.256 60.766 94.72C59.6567 93.184 58.078 92.032 56.03 91.264C54.0673 90.4107 51.678 89.984 48.862 89.984H28.51V111.36ZM28.51 74.752H46.686C48.99 74.752 50.9953 74.3253 52.702 73.472C54.4087 72.6187 55.6887 71.4667 56.542 70.016C57.4807 68.5653 57.95 66.8587 57.95 64.896C57.95 61.7387 56.926 59.3067 54.878 57.6C52.83 55.8933 49.758 55.04 45.662 55.04H28.51V74.752ZM94.473 128V60.288H112.009L112.649 82.048L109.577 77.568C110.601 74.0693 112.265 70.912 114.569 68.096C116.873 65.1947 119.561 62.9333 122.633 61.312C125.79 59.6907 129.076 58.88 132.489 58.88C133.94 58.88 135.348 59.008 136.713 59.264C138.078 59.52 139.23 59.8187 140.169 60.16L135.305 80.128C134.281 79.616 133.044 79.1893 131.593 78.848C130.142 78.4213 128.649 78.208 127.113 78.208C125.065 78.208 123.145 78.592 121.353 79.36C119.646 80.0427 118.153 81.0667 116.873 82.432C115.593 83.712 114.569 85.248 113.801 87.04C113.118 88.832 112.777 90.7947 112.777 92.928V128H94.473ZM171.147 129.28C165.515 129.28 160.438 127.744 155.915 124.672C151.392 121.6 147.808 117.419 145.163 112.128C142.518 106.837 141.195 100.779 141.195 93.952C141.195 87.1253 142.518 81.1093 145.163 75.904C147.894 70.6133 151.563 66.4747 156.171 63.488C160.779 60.416 166.027 58.88 171.915 58.88C175.243 58.88 178.272 59.392 181.003 60.416C183.819 61.3547 186.251 62.6773 188.299 64.384C190.432 66.0907 192.224 68.0533 193.675 70.272C195.126 72.4907 196.15 74.88 196.747 77.44L192.907 76.8V60.288H210.955V128H192.651V111.744L196.747 111.36C196.064 113.749 194.955 116.011 193.419 118.144C191.883 120.277 189.963 122.197 187.659 123.904C185.44 125.525 182.923 126.848 180.107 127.872C177.291 128.811 174.304 129.28 171.147 129.28ZM176.139 113.536C179.552 113.536 182.539 112.725 185.099 111.104C187.659 109.483 189.622 107.221 190.987 104.32C192.438 101.333 193.163 97.8773 193.163 93.952C193.163 90.112 192.438 86.7413 190.987 83.84C189.622 80.9387 187.659 78.6773 185.099 77.056C182.539 75.3493 179.552 74.496 176.139 74.496C172.811 74.496 169.867 75.3493 167.307 77.056C164.832 78.6773 162.87 80.9387 161.419 83.84C159.968 86.7413 159.243 90.112 159.243 93.952C159.243 97.8773 159.968 101.333 161.419 104.32C162.87 107.221 164.832 109.483 167.307 111.104C169.867 112.725 172.811 113.536 176.139 113.536ZM227.258 128V60.288H244.666L245.178 74.112L241.594 75.648C242.533 72.576 244.197 69.8027 246.586 67.328C249.061 64.768 252.005 62.72 255.418 61.184C258.831 59.648 262.415 58.88 266.17 58.88C271.29 58.88 275.557 59.904 278.97 61.952C282.469 64 285.071 67.1147 286.778 71.296C288.57 75.392 289.466 80.4693 289.466 86.528V128H271.29V87.936C271.29 84.864 270.863 82.304 270.01 80.256C269.157 78.208 267.834 76.7147 266.042 75.776C264.335 74.752 262.202 74.3253 259.642 74.496C257.594 74.496 255.674 74.8373 253.882 75.52C252.175 76.1173 250.682 77.0133 249.402 78.208C248.207 79.4027 247.226 80.768 246.458 82.304C245.775 83.84 245.434 85.504 245.434 87.296V128H236.474C234.511 128 232.762 128 231.226 128C229.69 128 228.367 128 227.258 128ZM331.459 129.28C325.571 129.28 320.28 127.787 315.587 124.8C310.894 121.728 307.182 117.589 304.451 112.384C301.806 107.093 300.483 100.992 300.483 94.08C300.483 87.3387 301.806 81.3227 304.451 76.032C307.182 70.7413 310.851 66.56 315.459 63.488C320.152 60.416 325.486 58.88 331.459 58.88C334.616 58.88 337.646 59.392 340.547 60.416C343.534 61.3547 346.179 62.6773 348.483 64.384C350.872 66.0907 352.792 68.0107 354.243 70.144C355.694 72.192 356.504 74.368 356.675 76.672L352.067 77.44V33.28H370.243V128H353.091L352.323 112.384L355.907 112.768C355.736 114.901 354.968 116.949 353.603 118.912C352.238 120.875 350.403 122.667 348.099 124.288C345.88 125.824 343.32 127.061 340.419 128C337.603 128.853 334.616 129.28 331.459 129.28ZM335.555 114.176C338.968 114.176 341.955 113.323 344.515 111.616C347.075 109.909 349.08 107.563 350.531 104.576C351.982 101.589 352.707 98.0907 352.707 94.08C352.707 90.1547 351.982 86.6987 350.531 83.712C349.08 80.64 347.075 78.2933 344.515 76.672C341.955 74.9653 338.968 74.112 335.555 74.112C332.142 74.112 329.155 74.9653 326.595 76.672C324.12 78.2933 322.158 80.64 320.707 83.712C319.342 86.6987 318.659 90.1547 318.659 94.08C318.659 98.0907 319.342 101.589 320.707 104.576C322.158 107.563 324.12 109.909 326.595 111.616C329.155 113.323 332.142 114.176 335.555 114.176ZM389.499 128V38.4H401.915L456.699 111.744L454.651 112.896C454.31 110.763 454.011 108.459 453.755 105.984C453.499 103.424 453.243 100.736 452.987 97.92C452.816 95.0187 452.646 91.9893 452.475 88.832C452.39 85.5893 452.304 82.2187 452.219 78.72C452.134 75.2213 452.091 71.5947 452.091 67.84V38.4H465.915V128H453.243L399.355 57.344L400.763 55.552C401.19 60.7573 401.531 65.1947 401.787 68.864C402.128 72.448 402.384 75.52 402.555 78.08C402.811 80.5547 402.982 82.6027 403.067 84.224C403.152 85.76 403.195 87.04 403.195 88.064C403.28 89.088 403.323 89.984 403.323 90.752V128H389.499ZM511.607 129.28C506.06 129.28 500.983 127.744 496.375 124.672C491.852 121.6 488.226 117.419 485.495 112.128C482.764 106.837 481.399 100.864 481.399 94.208C481.399 87.4667 482.764 81.4933 485.495 76.288C488.311 70.9973 492.066 66.8587 496.759 63.872C501.538 60.8853 506.871 59.392 512.759 59.392C516.258 59.392 519.458 59.904 522.359 60.928C525.26 61.952 527.778 63.4027 529.911 65.28C532.13 67.072 533.922 69.1627 535.287 71.552C536.738 73.9413 537.634 76.5013 537.975 79.232L535.031 78.208V60.8H548.343V128H535.031V112L538.103 111.104C537.591 113.408 536.524 115.669 534.903 117.888C533.367 120.021 531.362 121.941 528.887 123.648C526.498 125.355 523.81 126.72 520.823 127.744C517.922 128.768 514.85 129.28 511.607 129.28ZM515.063 117.12C519.074 117.12 522.615 116.139 525.687 114.176C528.759 112.213 531.148 109.525 532.855 106.112C534.647 102.613 535.543 98.6453 535.543 94.208C535.543 89.856 534.647 85.9733 532.855 82.56C531.148 79.1467 528.759 76.4587 525.687 74.496C522.615 72.5333 519.074 71.552 515.063 71.552C511.138 71.552 507.639 72.5333 504.567 74.496C501.58 76.4587 499.191 79.1467 497.399 82.56C495.692 85.9733 494.839 89.856 494.839 94.208C494.839 98.6453 495.692 102.613 497.399 106.112C499.191 109.525 501.58 112.213 504.567 114.176C507.639 116.139 511.138 117.12 515.063 117.12ZM564.575 128V60.8H577.887V75.136L575.455 76.672C576.138 74.4533 577.204 72.32 578.655 70.272C580.191 68.224 582.026 66.432 584.159 64.896C586.378 63.2747 588.724 61.9947 591.199 61.056C593.759 60.1173 596.362 59.648 599.007 59.648C602.847 59.648 606.218 60.288 609.119 61.568C612.02 62.848 614.41 64.768 616.287 67.328C618.164 69.888 619.53 73.088 620.383 76.928L618.335 76.416L619.231 74.24C620.17 72.2773 621.45 70.4427 623.071 68.736C624.778 66.944 626.698 65.3653 628.831 64C630.964 62.6347 633.226 61.568 635.615 60.8C638.004 60.032 640.351 59.648 642.655 59.648C647.69 59.648 651.828 60.672 655.071 62.72C658.399 64.768 660.874 67.8827 662.495 72.064C664.202 76.2453 665.055 81.4507 665.055 87.68V128H651.743V88.448C651.743 84.608 651.231 81.4933 650.207 79.104C649.268 76.6293 647.818 74.7947 645.855 73.6C643.892 72.4053 641.375 71.808 638.303 71.808C635.914 71.808 633.652 72.2347 631.519 73.088C629.471 73.856 627.679 74.9653 626.143 76.416C624.607 77.8667 623.412 79.5733 622.559 81.536C621.706 83.4133 621.279 85.504 621.279 87.808V128H607.967V88.192C607.967 84.6933 607.455 81.7493 606.431 79.36C605.407 76.8853 603.914 75.008 601.951 73.728C599.988 72.448 597.599 71.808 594.783 71.808C592.394 71.808 590.175 72.2347 588.127 73.088C586.079 73.856 584.287 74.9653 582.751 76.416C581.215 77.7813 580.02 79.4453 579.167 81.408C578.314 83.2853 577.887 85.3333 577.887 87.552V128H564.575ZM712.146 129.28C705.234 129.28 699.09 127.829 693.714 124.928C688.423 121.941 684.242 117.888 681.17 112.768C678.183 107.648 676.69 101.76 676.69 95.104C676.69 89.8133 677.543 84.992 679.25 80.64C680.957 76.288 683.303 72.5333 686.29 69.376C689.362 66.1333 692.989 63.6587 697.17 61.952C701.437 60.16 706.045 59.264 710.994 59.264C715.346 59.264 719.399 60.1173 723.154 61.824C726.909 63.4453 730.151 65.7067 732.882 68.608C735.698 71.5093 737.831 74.9653 739.282 78.976C740.818 82.9013 741.543 87.2107 741.458 91.904L741.33 97.536H686.418L683.474 87.04H729.938L728.018 89.216V86.144C727.762 83.328 726.823 80.8107 725.202 78.592C723.581 76.3733 721.533 74.624 719.058 73.344C716.583 72.064 713.895 71.424 710.994 71.424C706.386 71.424 702.503 72.32 699.346 74.112C696.189 75.8187 693.799 78.3787 692.178 81.792C690.557 85.12 689.746 89.2587 689.746 94.208C689.746 98.9013 690.727 102.997 692.69 106.496C694.653 109.909 697.426 112.555 701.01 114.432C704.594 116.309 708.733 117.248 713.426 117.248C716.754 117.248 719.826 116.693 722.642 115.584C725.543 114.475 728.658 112.469 731.986 109.568L738.642 118.912C736.594 120.96 734.077 122.752 731.09 124.288C728.189 125.824 725.074 127.061 721.746 128C718.503 128.853 715.303 129.28 712.146 129.28Z"
            fill="#066efc" />
    </g>
</svg>